<svg version="1.1" id="Layer_1" xmlns="http://www.w3.org/2000/svg" xmlns:xlink="http://www.w3.org/1999/xlink" x="0px" y="0px"
	 width="100%" viewBox="0 0 608 608" enable-background="new 0 0 608 608" xml:space="preserve">
<path fill="#000000" opacity="1.000000" stroke="none" 
	d="
M292.397522,540.931824 
	C289.972534,546.292480 285.288696,548.724182 281.031586,551.549255 
	C278.502380,553.227661 277.051880,551.197937 275.819458,549.346069 
	C271.842560,543.370483 271.177551,536.670166 271.927734,529.052307 
	C265.073975,528.145203 258.379211,527.397034 251.732544,526.345154 
	C243.043472,524.969849 234.414261,523.208740 225.715698,521.904236 
	C221.469376,521.267456 220.293518,519.105408 220.615189,515.110168 
	C221.495575,504.175385 221.812592,493.186340 222.975494,482.285248 
	C224.859161,464.627472 226.919144,446.988953 229.519821,429.407867 
	C233.847778,400.149963 239.345154,371.129608 246.125320,342.351959 
	C249.099411,329.728729 251.491837,316.858704 255.814331,304.692657 
	C260.441193,291.670013 264.925720,278.632935 267.916718,265.190674 
	C270.355469,254.230438 275.688660,243.751724 274.570312,232.147903 
	C273.406342,220.070953 272.184326,207.970551 270.179291,196.015991 
	C269.180115,190.058853 271.066925,184.808807 271.951874,179.309525 
	C273.525116,169.533127 272.483093,160.080307 269.437195,150.780640 
	C267.655548,145.340988 268.062775,144.595642 274.407471,143.390106 
	C275.940186,145.974731 275.924957,148.991943 276.566223,151.856110 
	C278.970276,162.593872 282.754608,172.908539 286.422424,183.260025 
	C287.474457,186.229111 289.503143,186.704590 292.253326,186.681885 
	C302.583313,186.596603 312.918732,186.484131 323.242950,186.745453 
	C327.149353,186.844315 328.910706,185.251953 330.088715,181.789230 
	C333.738373,171.061188 337.228180,160.316269 338.185394,148.928635 
	C338.337036,147.124374 338.717255,145.339325 338.986664,143.578903 
	C345.296997,143.776398 346.322388,145.132004 344.564331,150.529999 
	C340.709076,162.367142 339.808441,174.359070 343.504639,186.360397 
	C344.874634,190.808746 343.696808,194.962769 343.232208,199.200714 
	C341.837860,211.920135 340.261688,224.620438 338.636780,237.312881 
	C338.384827,239.280991 339.114136,240.905670 339.596436,242.638977 
	C346.233429,266.492493 354.271606,289.945190 360.844849,313.792267 
	C371.792938,353.510895 379.898102,393.876068 385.555908,434.732147 
	C389.226013,461.234619 392.050781,487.785400 393.446808,514.505615 
	C393.715485,519.649109 391.761566,521.447571 387.003082,522.209778 
	C371.579193,524.680237 356.178558,527.295959 340.573334,528.312683 
	C337.280518,528.527344 336.315552,529.499573 336.839722,532.929504 
	C337.751984,538.898804 335.882019,544.420288 332.836823,549.566528 
	C331.227173,552.286743 329.205780,552.641602 326.583069,551.001465 
	C320.461304,547.173279 315.096924,542.702759 314.889771,534.775635 
	C314.780792,530.603943 312.668030,529.771729 309.159607,529.959534 
	C306.335022,530.110657 303.458771,530.287781 300.671600,529.933228 
	C295.356171,529.257263 293.437469,531.815186 293.312195,536.675903 
	C293.278809,537.971497 292.775665,539.255066 292.397522,540.931824 
M309.982910,378.244385 
	C308.818848,337.633667 307.654785,297.022949 306.490723,256.412231 
	C305.500153,275.838959 304.883636,295.276642 304.361206,314.716888 
	C303.918274,331.200012 304.038818,347.713409 303.049988,364.161682 
	C302.330414,376.130127 302.964935,388.151917 301.397583,400.079315 
	C301.087128,402.441681 300.991608,404.411560 297.855865,404.223694 
	C295.001190,404.052673 293.579712,402.733124 293.711639,399.811554 
	C293.809357,397.648041 293.810303,395.480347 293.883636,393.315521 
	C294.808044,366.025421 295.839935,338.738525 296.633301,311.444672 
	C297.252747,290.134003 297.593323,268.815094 298.008789,247.498886 
	C298.049744,245.397247 298.639984,243.058243 296.788696,241.358093 
	C293.014526,237.892044 282.594452,240.842117 281.332367,245.728012 
	C274.223297,273.249115 267.804108,300.933990 261.814972,328.717621 
	C250.821304,379.717163 240.700272,430.869873 234.055664,482.663300 
	C233.074524,490.311035 233.429657,489.628448 239.774658,490.370544 
	C258.938599,492.611908 278.197754,493.888580 297.482208,494.648682 
	C311.483704,495.200592 325.467133,494.333008 339.426178,493.542236 
	C351.532593,492.856445 363.584991,491.259094 375.676544,490.247131 
	C380.107819,489.876251 381.113556,487.745850 380.501404,483.657318 
	C375.752350,451.939819 370.758698,420.267303 364.669678,388.771698 
	C355.677490,342.259735 346.225708,295.852722 334.108002,250.030457 
	C330.947357,238.078751 332.532898,240.509216 321.350342,240.305054 
	C314.326080,240.176819 314.182220,240.304626 314.360962,247.594788 
	C314.944550,271.398193 315.647797,295.198639 316.291931,319.000580 
	C317.012726,345.634216 317.661469,372.270081 318.508698,398.899689 
	C318.608948,402.051208 318.414673,404.147827 314.665497,404.244141 
	C310.909515,404.340637 310.958801,401.702026 310.807709,399.150452 
	C310.414001,392.501862 311.127350,385.810944 309.982910,378.244385 
z"/>
<path fill="#000000" opacity="1.000000" stroke="none" 
	d="
M294.427856,134.026215 
	C296.177582,124.603470 289.853790,119.094284 285.095673,113.057518 
	C283.280609,110.754700 281.612244,108.626999 281.343048,105.723473 
	C281.154480,103.689659 282.096344,102.127617 284.240723,101.701202 
	C286.337891,101.284180 287.194489,102.660690 287.790405,104.377640 
	C289.040741,107.980034 290.318787,111.573135 291.621796,115.156845 
	C293.615997,120.641663 295.484619,121.541634 300.891327,119.652824 
	C303.648407,118.689644 305.350128,118.934196 304.071320,122.464378 
	C302.896851,125.706642 305.035431,126.410507 307.356018,126.397682 
	C310.563873,126.379944 313.497559,125.643379 315.485596,122.522308 
	C317.416534,119.490974 320.080750,117.030670 323.114441,114.614975 
	C324.948395,117.431725 323.452240,119.259636 322.023102,120.679787 
	C316.917297,125.753357 317.850067,131.776413 318.978027,137.876984 
	C319.095551,138.512650 319.626495,139.106903 319.630768,139.722702 
	C319.656586,143.435150 306.837830,150.858597 303.679321,148.920319 
	C301.134125,147.358429 298.844269,145.357376 296.234192,143.929367 
	C291.653748,141.423309 290.425140,138.493805 294.427856,134.026215 
z"/>
<path fill="#000000" opacity="1.000000" stroke="none" 
	d="
M330.146912,79.262268 
	C331.323029,83.062454 331.753204,86.378120 328.673492,89.244759 
	C318.450165,69.492851 293.823547,70.355263 284.934906,89.020210 
	C281.684418,85.689972 281.727264,80.499443 285.061798,76.317352 
	C289.538361,70.702980 295.853546,68.862938 302.560059,67.980354 
	C311.107208,66.855560 326.272339,69.671463 330.146912,79.262268 
z"/>
<path fill="#000000" opacity="1.000000" stroke="none" 
	d="
M280.748596,136.079803 
	C276.388245,138.242493 276.574127,134.727402 276.478577,132.652191 
	C276.252197,127.735634 278.801605,123.966225 283.336334,119.778252 
	C283.097870,125.955971 282.304993,130.902695 280.748596,136.079803 
z"/>
</svg>